<?xml version="1.0" standalone="no"?>
<!DOCTYPE svg PUBLIC "-//W3C//DTD SVG 20010904//EN"
 "http://www.w3.org/TR/2001/REC-SVG-20010904/DTD/svg10.dtd">
<svg version="1.0" xmlns="http://www.w3.org/2000/svg"
 width="423.000000pt" height="423.000000pt" viewBox="0 0 423.000000 423.000000"
 preserveAspectRatio="xMidYMid meet">
<metadata>
Created by potrace 1.14, written by Peter Selinger 2001-2017
</metadata>
<g transform="translate(0.000000,423.000000) scale(0.100000,-0.100000)"
fill="#000000" stroke="none">
<path d="M0 2115 l0 -2115 2115 0 2115 0 0 2115 0 2115 -2115 0 -2115 0 0
-2115z m2509 2029 c31 -39 27 -84 -9 -119 -30 -29 -30 -29 -30 -143 0 -64 -5
-123 -11 -135 -6 -12 -65 -76 -130 -143 -66 -66 -120 -127 -121 -135 0 -8 -3
-54 -4 -104 -2 -49 -4 -99 -5 -110 -1 -11 4 -156 12 -322 l13 -303 28 27 c28
27 28 28 28 153 l0 126 -30 29 c-38 37 -40 76 -4 104 34 26 54 26 88 0 33 -26
33 -59 -1 -99 -26 -31 -27 -37 -25 -133 1 -55 4 -102 7 -105 6 -6 109 99 124
126 7 13 11 93 11 217 l0 197 -30 28 c-40 37 -51 70 -39 113 13 50 41 70 94
70 52 0 79 -19 96 -70 14 -43 0 -81 -42 -112 l-29 -22 0 -119 c0 -65 4 -121 8
-124 5 -3 45 32 90 77 l82 82 4 165 4 165 -38 37 c-29 30 -45 38 -73 38 -44 0
-67 22 -67 63 0 41 9 53 44 66 21 8 35 8 54 -1 23 -11 28 -21 32 -65 4 -38 13
-60 32 -80 27 -28 27 -30 30 -183 3 -130 5 -155 18 -155 13 0 15 45 18 331 l2
331 -30 38 c-36 46 -37 59 -5 90 70 70 158 -24 90 -95 l-25 -26 2 -263 3 -263
24 19 c18 15 25 31 26 64 1 24 2 50 3 58 1 7 35 48 75 90 96 99 117 128 117
159 0 62 80 86 120 35 15 -19 19 -35 15 -53 -10 -40 -24 -50 -69 -50 -48 0
-58 -6 -147 -93 -80 -77 -89 -92 -89 -153 0 -41 -5 -51 -37 -81 -29 -27 -38
-46 -44 -86 -8 -49 -15 -57 -138 -182 l-129 -130 -4 -77 -3 -77 -136 -138
-136 -138 -7 -404 c-4 -222 -5 -406 -2 -408 2 -2 26 18 53 44 32 31 52 60 56
82 4 18 7 108 7 200 0 156 -2 169 -25 216 -43 89 -26 171 47 215 128 78 280
-68 209 -200 -20 -37 -88 -80 -128 -80 -23 0 -23 -1 -23 -116 l0 -116 110 104
c60 57 118 119 127 138 26 51 23 270 -4 285 -10 6 -32 24 -50 41 -59 57 -40
149 38 189 16 9 29 24 29 34 0 43 33 86 160 209 74 71 141 141 149 155 13 24
12 30 -12 65 -35 49 -35 85 -1 111 35 27 59 26 89 -4 32 -32 31 -57 -3 -97
-16 -18 -32 -46 -36 -63 -5 -20 -56 -78 -154 -177 -81 -81 -151 -159 -157
-174 -8 -23 -6 -29 25 -55 57 -47 67 -46 119 4 52 52 85 67 141 67 51 0 80 12
125 52 54 47 75 98 75 187 0 103 16 147 72 204 l48 48 -6 57 c-5 49 -3 61 17
86 89 113 261 16 206 -117 -20 -46 -63 -69 -128 -66 -42 2 -53 -1 -80 -27 -67
-63 -74 -81 -74 -184 -1 -110 -16 -149 -86 -219 -57 -57 -107 -81 -168 -81
-70 0 -120 -41 -183 -148 -27 -46 -56 -86 -64 -89 -11 -4 -14 -32 -14 -133 0
-71 -5 -141 -11 -157 -5 -15 -75 -94 -155 -174 -123 -125 -144 -150 -144 -177
0 -53 -18 -81 -110 -177 l-90 -93 1 -429 c0 -235 4 -536 8 -668 4 -132 5 -286
3 -342 l-4 -103 -169 0 -169 0 0 134 c0 119 3 140 24 187 51 116 68 239 111
769 35 433 35 442 40 471 4 25 0 27 -73 48 -42 12 -144 43 -226 69 l-148 46
-56 -29 c-31 -16 -94 -67 -141 -112 -78 -76 -101 -94 -101 -77 0 4 18 26 39
49 47 52 88 128 97 183 l6 39 -73 31 c-41 16 -116 45 -166 62 -73 25 -93 37
-93 51 0 11 3 19 6 19 3 0 92 -27 197 -61 235 -74 415 -121 593 -154 75 -14
139 -25 143 -25 4 0 13 53 19 118 10 104 9 118 -5 127 -343 215 -523 391 -592
580 -12 33 -29 66 -38 73 -24 17 -82 15 -208 -8 -60 -11 -110 -18 -113 -15
-12 11 10 35 33 35 38 0 172 29 216 47 21 8 40 21 43 29 7 17 -59 129 -122
208 -24 30 -72 75 -108 101 -35 26 -64 54 -64 62 0 11 7 10 29 -6 36 -26 72
-27 99 -3 25 21 72 108 72 133 0 11 5 19 11 19 16 0 1 -57 -33 -124 -18 -35
-27 -67 -24 -80 3 -11 28 -48 57 -81 66 -77 137 -185 168 -255 88 -202 117
-244 236 -348 59 -52 231 -172 246 -172 4 0 -3 33 -17 72 -40 115 -101 363
-118 479 -9 58 -20 195 -26 305 -5 109 -15 236 -21 282 -11 74 -16 86 -44 111
-20 17 -69 40 -124 57 -69 22 -91 33 -91 47 0 9 3 17 8 17 23 0 143 -30 176
-44 46 -19 53 -15 37 21 -7 16 -24 60 -38 98 -14 39 -48 114 -74 168 -27 53
-47 97 -44 97 9 0 83 -116 117 -185 69 -136 102 -277 133 -556 28 -267 36
-324 56 -424 24 -117 113 -389 160 -490 l33 -70 7 81 c21 228 31 509 35 981
l4 523 -35 32 c-47 43 -62 92 -42 141 17 40 68 77 105 77 66 0 122 -58 122
-126 0 -33 -7 -45 -50 -85 l-50 -47 0 -118 0 -119 113 113 112 112 0 116 c0
115 0 116 -28 136 -39 28 -50 62 -37 104 14 42 33 53 87 54 33 0 46 -5 62 -26z
m-613 -57 c26 -34 60 -90 77 -125 27 -58 29 -70 25 -146 -4 -72 -10 -95 -45
-167 -22 -46 -47 -92 -55 -103 -14 -18 -16 -16 -41 29 l-27 48 0 269 c0 162 4
267 9 263 5 -3 31 -33 57 -68z m-679 -88 c88 -33 171 -121 210 -224 17 -44 33
-93 37 -108 7 -28 6 -29 -26 -22 -72 15 -239 76 -278 101 l-40 27 0 123 c0
143 -3 140 97 103z m350 -515 c77 -58 130 -174 140 -302 l6 -74 -104 52 c-57
29 -123 66 -146 82 l-43 29 0 144 0 145 57 -25 c31 -14 72 -37 90 -51z m-547
-10 c29 -16 73 -51 99 -79 44 -49 111 -160 111 -184 0 -28 -239 3 -324 42
l-56 26 0 117 0 117 59 -6 c38 -3 78 -15 111 -33z m1029 -194 c21 -36 46 -87
55 -113 22 -66 20 -165 -4 -238 -19 -57 -88 -179 -101 -179 -23 0 -29 69 -29
348 l0 297 21 -25 c11 -14 37 -54 58 -90z m-1127 -210 c74 -23 145 -78 190
-150 24 -38 78 -183 78 -210 0 -19 -241 60 -304 100 l-46 30 0 125 c0 69 4
125 9 125 5 0 38 -9 73 -20z m814 -189 c26 -25 59 -70 73 -100 24 -51 26 -67
26 -183 0 -69 -3 -130 -7 -134 -8 -8 -50 23 -150 109 l-68 58 0 170 0 171 39
-23 c22 -13 61 -44 87 -68z m1872 73 c30 -21 52 -66 52 -105 0 -26 -10 -42
-49 -78 -27 -25 -63 -64 -80 -85 -17 -22 -65 -70 -106 -108 -72 -65 -78 -68
-126 -68 -61 0 -101 -17 -157 -65 -74 -64 -119 -166 -105 -237 l6 -28 110 0
c131 0 176 17 232 84 32 39 35 49 35 108 0 50 5 71 20 90 88 113 261 -4 195
-132 -23 -44 -53 -60 -113 -60 -52 0 -56 -2 -117 -61 -76 -73 -128 -92 -221
-83 -80 8 -131 -15 -203 -91 -71 -75 -91 -121 -91 -219 l0 -78 -70 -72 c-39
-40 -67 -76 -63 -79 15 -16 101 -6 140 16 48 27 183 169 184 194 0 10 0 38 -1
62 -1 35 4 49 26 72 73 76 194 28 194 -78 0 -38 -5 -50 -35 -80 -33 -33 -36
-34 -90 -28 l-55 7 -93 -90 c-51 -50 -109 -98 -129 -107 -23 -9 -68 -15 -118
-15 l-80 0 -89 -82 c-114 -106 -188 -188 -201 -222 -6 -18 -10 -231 -10 -597
l0 -569 -30 0 -30 0 0 580 c0 608 1 624 43 659 14 11 17 35 17 153 l0 139 58
61 c51 54 57 64 57 104 1 50 16 71 60 79 40 8 75 -23 75 -67 0 -45 -25 -68
-74 -68 -37 0 -46 -6 -93 -59 l-53 -59 0 -117 0 -117 193 187 c105 103 200
202 210 219 13 24 16 43 11 86 -8 74 9 132 51 175 l35 34 0 193 0 193 110 108
c107 105 110 109 110 152 0 64 50 102 100 75 51 -27 45 -115 -9 -126 -14 -3
-36 -7 -49 -10 -26 -5 -171 -139 -214 -198 -28 -39 -28 -39 -28 -198 0 -99 4
-158 10 -158 6 0 10 56 10 148 l0 149 108 105 108 105 67 5 c44 2 73 10 83 20
15 15 15 19 -5 44 -29 37 -27 78 5 103 35 27 59 26 89 -4 38 -37 32 -69 -22
-121 -64 -60 -93 -74 -148 -72 l-47 2 -104 -107 -104 -107 0 -95 c0 -57 4 -95
10 -95 6 0 10 38 10 93 l0 92 83 82 c87 86 120 103 194 100 41 -2 46 2 138 93
92 91 111 120 81 120 -8 0 -28 12 -45 26 -54 45 -51 129 7 174 30 24 98 26
130 4z m-2933 -213 c33 -16 81 -49 106 -74 45 -43 119 -143 119 -160 0 -5 -71
-7 -157 -5 -137 3 -164 6 -205 25 l-48 22 0 110 0 111 63 0 c48 0 76 -7 122
-29z m671 -176 c67 -33 139 -111 188 -205 l39 -73 -94 6 c-119 8 -191 23 -251
53 l-48 24 0 117 0 116 56 -6 c31 -3 80 -18 110 -32z m-341 -226 c86 -41 240
-207 220 -239 -10 -16 -231 -12 -300 6 -105 27 -105 27 -105 156 l0 111 69 -6
c39 -3 89 -15 116 -28z m791 -183 c29 -14 76 -46 104 -72 64 -60 126 -152 112
-166 -7 -7 -63 -9 -154 -6 -120 4 -151 9 -195 28 l-53 23 0 115 0 115 66 -6
c37 -4 90 -17 120 -31z m-767 -226 c74 -14 116 -36 181 -97 58 -53 120 -138
120 -162 0 -10 -34 -12 -152 -9 -129 4 -161 8 -200 26 l-48 21 0 109 c0 60 3
112 7 115 9 9 31 9 92 -3z m783 -374 c63 -75 91 -142 108 -261 11 -81 13 -155
3 -155 -12 0 -117 62 -165 97 l-48 35 0 190 0 190 23 -14 c12 -8 48 -45 79
-82z"/>
<path d="M2400 4130 c-50 -50 4 -128 68 -98 21 10 28 21 30 49 5 63 -54 93
-98 49z"/>
<path d="M2720 4015 c-21 -25 3 -67 37 -63 34 4 52 31 37 56 -15 23 -57 27
-74 7z"/>
<path d="M2131 3954 c-27 -35 -27 -65 2 -92 46 -44 117 -14 117 48 0 65 -79
94 -119 44z"/>
<path d="M3072 3813 c-7 -3 -17 -13 -22 -24 -23 -43 39 -82 70 -44 26 31 -9
81 -48 68z"/>
<path d="M2541 3696 c-15 -17 -5 -44 20 -51 22 -7 59 11 59 28 0 34 -57 50
-79 23z"/>
<path d="M3356 3428 c-34 -48 -4 -108 54 -108 35 0 70 34 70 67 0 57 -92 87
-124 41z"/>
<path d="M2453 3429 c-18 -6 -23 -16 -23 -43 0 -29 4 -37 24 -42 47 -11 61 -2
61 40 0 43 -23 60 -62 45z"/>
<path d="M2961 3288 c-10 -28 -4 -46 20 -59 41 -22 80 36 47 69 -20 20 -58 14
-67 -10z"/>
<path d="M2262 3048 c-35 -35 15 -99 53 -68 30 25 12 80 -25 80 -9 0 -21 -5
-28 -12z"/>
<path d="M2627 2682 c-22 -25 -21 -75 1 -95 19 -18 68 -22 89 -9 32 20 32 94
0 114 -22 14 -74 8 -90 -10z"/>
<path d="M2386 2429 c-20 -16 -26 -29 -26 -58 0 -46 24 -71 68 -71 69 0 99 87
46 129 -15 12 -34 21 -44 21 -10 0 -29 -9 -44 -21z"/>
<path d="M3490 2908 c-35 -38 -25 -90 22 -114 73 -38 146 58 88 116 -27 27
-83 27 -110 -2z"/>
<path d="M3180 2740 c-12 -22 0 -55 22 -63 39 -13 74 37 48 68 -18 21 -57 19
-70 -5z"/>
<path d="M3352 2748 c-34 -34 6 -90 48 -68 35 19 20 80 -20 80 -9 0 -21 -5
-28 -12z"/>
<path d="M3485 2440 c-40 -44 -10 -120 47 -120 61 0 90 76 45 118 -29 27 -68
28 -92 2z"/>
<path d="M3147 1918 c-27 -21 -36 -60 -22 -94 31 -74 135 -50 135 31 0 61 -66
98 -113 63z"/>
<path d="M2550 1805 c-17 -20 -4 -62 21 -70 15 -5 28 -1 42 14 18 17 19 24 9
46 -13 29 -52 34 -72 10z"/>
</g>
</svg>
